<?xml version="1.0" encoding="iso-8859-1"?>
<!--Generator: Adobe Illustrator 19.0.0, SVG Export Plug-In . SVG Version: 6.00 Build 0)-->
<svg version="1.1" id="Capa_1" xmlns="http://www.w3.org/2000/svg" xmlns:xlink="http://www.w3.org/1999/xlink" x="0px" y="0px" viewBox="0 0 512.001 512.001" style="enable-background:new 0 0 512.001 512.001" xml:space="preserve">
    <path style="fill:#f985ac" d="M308.307,243.533c82.271-29.944,230.23,23.684,185.191,116.206
	c-35.116,72.139-132.146,46.691-136.695,16.073L308.307,243.533z"/>
    <path style="fill:#ff6e6e" d="M356.804,375.813l-5.036-13.736c58.774-36.24,112.288-17.875,136.121,7.59
	C449.068,429.357,361.129,404.926,356.804,375.813z"/>
    <path style="opacity:.1;enable-background:new" d="M463.208,264.218c-19.207,15.303-39.274,26.822-59.884,34.325
	c-0.004,0.001-0.004,0.001-0.008,0.003c-17.871,6.505-35.948,10.065-55.257,10.883c-5.458,0.231-10.664,0.217-15.57,0.063
	l-24.182-65.958C354.495,226.721,421.386,236.253,463.208,264.218z"/>
    <path style="fill:#f985ac" d="M274.394,223.407c5.741-42.394,89.911-180.162,174.698-168.91
	c66.902,8.878,92.353,106.803,16.453,178.527s-141.652,52.351-168.847,51.664L274.394,223.407z"/>
    <path style="fill:#ffa6bb" d="M373.52,79.146c23.639-17.526,49.575-28.099,75.573-24.649
	c66.902,8.878,92.353,106.803,16.453,178.527c-10.726,10.136-21.249,18.451-31.49,25.258
	C511.983,133.493,421.19,73.67,373.52,79.146z"/>
    <g>
        <circle style="fill:#ff6e6e" cx="384.53" cy="171.16" r="32.24"/>
        <path style="fill:#ff6e6e" d="M223.731,167.475c-2.147,0-4.28-0.918-5.764-2.696c-28.82-34.552-74.608-58.275-87.956-64.724
		c-3.729-1.802-5.292-6.286-3.49-10.016c1.801-3.729,6.282-5.293,10.016-3.49c14.031,6.778,62.203,31.761,92.95,68.622
		c2.653,3.181,2.226,7.91-0.956,10.564C227.129,166.905,225.426,167.475,223.731,167.475z"/>
        <path style="fill:#ff6e6e" d="M258.424,154.847c-4.133,0-7.488-3.344-7.5-7.479c-0.141-48.002,20.703-98.103,27.095-112.314
		c1.699-3.778,6.142-5.462,9.916-3.764c3.777,1.698,5.463,6.139,3.764,9.916c-6.079,13.519-25.906,61.123-25.774,106.119
		c0.012,4.142-3.336,7.51-7.478,7.521C258.439,154.847,258.431,154.847,258.424,154.847z"/>
    </g>
    <path style="fill:#f985ac" d="M247.342,265.722c-82.271,29.944-161.143,166.132-67.169,208.058
	c73.271,32.69,131.242-49.174,115.046-75.553L247.342,265.722z"/>
    <path style="fill:#ff6e6e" d="M295.219,398.227l-4.972-13.759c-68.318,10.018-97.507,58.485-99.396,93.311
	C258.959,498.551,310.62,423.31,295.219,398.227z"/>
    <path style="opacity:.1;enable-background:new" d="M141.977,381.136c24.55-0.623,47.327-4.698,67.938-12.199
	c0.004-0.001,0.004-0.001,0.008-0.003c17.871-6.505,34.007-15.397,49.325-27.182c4.329-3.332,8.309-6.689,11.967-9.96
	l-23.873-66.071C201.154,282.533,156.039,332.831,141.977,381.136z"/>
    <path style="fill:#f985ac" d="M260.384,228.507c-31.648-28.786-184.681-80.219-242.4-17.098
	c-45.543,49.805-2.095,141.179,102.151,147.335s142.163-50.949,162.553-68.956L260.384,228.507z"/>
    <path style="fill:#ffb655" d="M349.505,451.568L349.505,451.568c-26.586,9.677-55.983-4.031-65.66-30.618l-83.562-229.585
	c-9.677-26.586,4.031-55.983,30.617-65.66l0,0c26.586-9.677,55.983,4.031,65.66,30.618l83.562,229.585
	C389.799,412.495,376.091,441.892,349.505,451.568z"/>
    <path style="fill:#ffa6bb" d="M91.72,181.713c-29.374,1.769-56.038,10.341-73.736,29.695
	c-45.543,49.805-2.095,141.179,102.151,147.335c14.732,0.87,28.138,0.475,40.358-0.893C20.585,312.347,51.683,208.159,91.72,181.713
	z"/>
    <circle style="fill:#ff6e6e" cx="142.44" cy="259.28" r="32.24"/>
    <path style="opacity:.1;enable-background:new" d="M212.137,137.68c-13.58,13.643-18.872,34.401-11.853,53.686l83.562,229.585
	c9.677,26.586,39.073,40.294,65.66,30.617c17.088-6.219,28.841-20.589,32.5-37.119C300.199,461.003,213.169,188.683,212.137,137.68z
	"/>
    <g style="opacity:.1">
        <rect x="275.744" y="218.346" transform="matrix(-0.342 -0.9397 0.9397 -0.342 126.7937 627.9352)" width="15" height="102.46"/>
        <rect x="292.58" y="264.592" transform="matrix(-0.342 -0.9397 0.9397 -0.342 105.9293 705.8176)" width="15" height="102.46"/>
        <rect x="309.418" y="310.854" transform="matrix(-0.342 -0.9397 0.9397 -0.342 85.0537 783.7242)" width="15" height="102.46"/>
    </g>
</svg>
